<svg width="473" height="149" viewBox="0 0 473 149" fill="none" xmlns="http://www.w3.org/2000/svg">
<path d="M471.479 74.9583C471.479 84.4784 465.323 93.8218 453.539 102.557C441.784 111.272 424.679 119.183 403.407 125.853C360.881 139.187 302.039 147.458 236.979 147.458C171.918 147.458 113.076 139.187 70.5501 125.853C49.2782 119.183 32.1728 111.272 20.4179 102.557C8.63433 93.8218 2.47852 84.4784 2.47852 74.9583C2.47852 65.4381 8.63433 56.0947 20.4179 47.3591C32.1728 38.6447 49.2782 30.7337 70.5501 24.0636C113.076 10.7292 171.918 2.45825 236.979 2.45825C302.039 2.45825 360.881 10.7292 403.407 24.0636C424.679 30.7337 441.784 38.6447 453.539 47.3591C465.323 56.0947 471.479 65.4381 471.479 74.9583Z" fill="black" stroke="white" stroke-width="3"/>
<path d="M110.36 67L101.87 56.44L103.16 55.69L112.16 67H110.36ZM95.78 67V46H97.31V67H95.78ZM96.8 57.04V55.66H103.19V57.04H96.8ZM103.25 56.65L101.84 56.35L109.91 46H111.62L103.25 56.65ZM115.246 72.94C114.526 72.94 113.846 72.82 113.206 72.58C112.586 72.34 112.056 71.99 111.616 71.53L112.366 70.39C112.766 70.81 113.196 71.12 113.656 71.32C114.136 71.52 114.676 71.62 115.276 71.62C115.996 71.62 116.626 71.42 117.166 71.02C117.726 70.62 118.246 69.89 118.726 68.83L119.806 66.43L120.016 66.16L126.646 51.34H128.176L120.136 69.13C119.716 70.09 119.256 70.84 118.756 71.38C118.276 71.94 117.746 72.34 117.166 72.58C116.586 72.82 115.946 72.94 115.246 72.94ZM119.776 67.39L112.516 51.34H114.106L120.706 66.07L119.776 67.39ZM139.693 67.12C138.313 67.12 137.063 66.8 135.943 66.16C134.843 65.52 133.963 64.61 133.303 63.43C132.663 62.23 132.343 60.81 132.343 59.17C132.343 57.53 132.663 56.12 133.303 54.94C133.963 53.74 134.843 52.82 135.943 52.18C137.063 51.54 138.313 51.22 139.693 51.22C141.173 51.22 142.493 51.56 143.653 52.24C144.833 52.9 145.753 53.83 146.413 55.03C147.093 56.23 147.433 57.61 147.433 59.17C147.433 60.73 147.093 62.11 146.413 63.31C145.753 64.51 144.833 65.45 143.653 66.13C142.493 66.79 141.173 67.12 139.693 67.12ZM131.833 72.82V51.34H133.273V56.47L133.033 59.2L133.333 61.93V72.82H131.833ZM139.603 65.77C140.803 65.77 141.883 65.5 142.843 64.96C143.803 64.4 144.553 63.62 145.092 62.62C145.653 61.62 145.933 60.47 145.933 59.17C145.933 57.85 145.653 56.7 145.092 55.72C144.553 54.72 143.803 53.95 142.843 53.41C141.883 52.85 140.803 52.57 139.603 52.57C138.403 52.57 137.323 52.85 136.363 53.41C135.423 53.95 134.673 54.72 134.113 55.72C133.573 56.7 133.303 57.85 133.303 59.17C133.303 60.47 133.573 61.62 134.113 62.62C134.673 63.62 135.423 64.4 136.363 64.96C137.323 65.5 138.403 65.77 139.603 65.77ZM162.032 67V63.43L161.972 62.89V57.01C161.972 55.55 161.572 54.44 160.772 53.68C159.992 52.92 158.842 52.54 157.322 52.54C156.242 52.54 155.232 52.73 154.292 53.11C153.372 53.47 152.582 53.94 151.922 54.52L151.172 53.44C151.952 52.74 152.892 52.2 153.992 51.82C155.092 51.42 156.242 51.22 157.442 51.22C159.382 51.22 160.872 51.71 161.912 52.69C162.952 53.67 163.472 55.13 163.472 57.07V67H162.032ZM156.392 67.12C155.232 67.12 154.222 66.94 153.362 66.58C152.522 66.2 151.872 65.67 151.412 64.99C150.972 64.31 150.752 63.53 150.752 62.65C150.752 61.85 150.932 61.13 151.292 60.49C151.672 59.83 152.292 59.3 153.152 58.9C154.012 58.48 155.162 58.27 156.602 58.27H162.362V59.44H156.632C155.012 59.44 153.872 59.74 153.212 60.34C152.572 60.94 152.252 61.69 152.252 62.59C152.252 63.59 152.632 64.39 153.392 64.99C154.152 65.59 155.222 65.89 156.602 65.89C157.922 65.89 159.032 65.59 159.932 64.99C160.852 64.39 161.532 63.52 161.972 62.38L162.392 63.4C161.972 64.54 161.252 65.45 160.232 66.13C159.232 66.79 157.952 67.12 156.392 67.12ZM172.416 67V52.24L172.836 52.69H166.296V51.34H180.036V52.69H173.496L173.916 52.24V67H172.416ZM188.755 67.12C187.255 67.12 185.915 66.78 184.735 66.1C183.575 65.42 182.645 64.48 181.945 63.28C181.265 62.08 180.925 60.71 180.925 59.17C180.925 57.61 181.265 56.24 181.945 55.06C182.645 53.86 183.575 52.92 184.735 52.24C185.915 51.56 187.255 51.22 188.755 51.22C190.255 51.22 191.595 51.56 192.775 52.24C193.955 52.92 194.885 53.86 195.565 55.06C196.245 56.24 196.585 57.61 196.585 59.17C196.585 60.71 196.245 62.08 195.565 63.28C194.885 64.48 193.955 65.42 192.775 66.1C191.595 66.78 190.255 67.12 188.755 67.12ZM188.755 65.77C189.955 65.77 191.035 65.5 191.995 64.96C192.955 64.4 193.705 63.62 194.245 62.62C194.785 61.62 195.055 60.47 195.055 59.17C195.055 57.85 194.785 56.7 194.245 55.72C193.705 54.72 192.955 53.95 191.995 53.41C191.035 52.85 189.955 52.57 188.755 52.57C187.555 52.57 186.475 52.85 185.515 53.41C184.575 53.95 183.825 54.72 183.265 55.72C182.725 56.7 182.455 57.85 182.455 59.17C182.455 60.47 182.725 61.62 183.265 62.62C183.825 63.62 184.575 64.4 185.515 64.96C186.475 65.5 187.555 65.77 188.755 65.77ZM209.36 67.12C207.98 67.12 206.73 66.8 205.61 66.16C204.51 65.52 203.63 64.61 202.97 63.43C202.33 62.23 202.01 60.81 202.01 59.17C202.01 57.53 202.33 56.12 202.97 54.94C203.63 53.74 204.51 52.82 205.61 52.18C206.73 51.54 207.98 51.22 209.36 51.22C210.84 51.22 212.16 51.56 213.32 52.24C214.5 52.9 215.42 53.83 216.08 55.03C216.76 56.23 217.1 57.61 217.1 59.17C217.1 60.73 216.76 62.11 216.08 63.31C215.42 64.51 214.5 65.45 213.32 66.13C212.16 66.79 210.84 67.12 209.36 67.12ZM201.5 72.82V51.34H202.94V56.47L202.7 59.2L203 61.93V72.82H201.5ZM209.27 65.77C210.47 65.77 211.55 65.5 212.51 64.96C213.47 64.4 214.22 63.62 214.76 62.62C215.32 61.62 215.6 60.47 215.6 59.17C215.6 57.85 215.32 56.7 214.76 55.72C214.22 54.72 213.47 53.95 212.51 53.41C211.55 52.85 210.47 52.57 209.27 52.57C208.07 52.57 206.99 52.85 206.03 53.41C205.09 53.95 204.34 54.72 203.78 55.72C203.24 56.7 202.97 57.85 202.97 59.17C202.97 60.47 203.24 61.62 203.78 62.62C204.34 63.62 205.09 64.4 206.03 64.96C206.99 65.5 208.07 65.77 209.27 65.77ZM221.738 53.77C221.398 53.77 221.098 53.65 220.838 53.41C220.598 53.15 220.478 52.84 220.478 52.48C220.478 52.12 220.598 51.82 220.838 51.58C221.098 51.34 221.398 51.22 221.738 51.22C222.078 51.22 222.368 51.34 222.608 51.58C222.868 51.82 222.998 52.12 222.998 52.48C222.998 52.84 222.868 53.15 222.608 53.41C222.368 53.65 222.078 53.77 221.738 53.77ZM221.738 67.12C221.398 67.12 221.098 67 220.838 66.76C220.598 66.5 220.478 66.19 220.478 65.83C220.478 65.47 220.598 65.17 220.838 64.93C221.098 64.69 221.398 64.57 221.738 64.57C222.078 64.57 222.368 64.69 222.608 64.93C222.868 65.17 222.998 65.47 222.998 65.83C222.998 66.19 222.868 66.5 222.608 66.76C222.368 67 222.078 67.12 221.738 67.12ZM108.65 104V96.95L109.13 97.4H101.96C100.34 97.4 98.94 97.12 97.76 96.56C96.6 96 95.71 95.19 95.09 94.13C94.49 93.07 94.19 91.8 94.19 90.32C94.19 88.74 94.52 87.41 95.18 86.33C95.86 85.23 96.8 84.4 98 83.84C99.22 83.28 100.64 83 102.26 83H110.18V104H108.65ZM94.19 104L99.32 96.65H100.94L95.84 104H94.19ZM108.65 96.56V83.9L109.13 84.38H102.38C100.28 84.38 98.65 84.88 97.49 85.88C96.33 86.88 95.75 88.35 95.75 90.29C95.75 92.13 96.28 93.56 97.34 94.58C98.42 95.58 100.01 96.08 102.11 96.08H109.13L108.65 96.56ZM125.103 104.12C123.723 104.12 122.473 103.8 121.353 103.16C120.253 102.52 119.373 101.61 118.713 100.43C118.073 99.23 117.753 97.81 117.753 96.17C117.753 94.53 118.073 93.12 118.713 91.94C119.373 90.74 120.253 89.82 121.353 89.18C122.473 88.54 123.723 88.22 125.103 88.22C126.583 88.22 127.903 88.56 129.063 89.24C130.243 89.9 131.163 90.83 131.823 92.03C132.503 93.23 132.843 94.61 132.843 96.17C132.843 97.73 132.503 99.11 131.823 100.31C131.163 101.51 130.243 102.45 129.063 103.13C127.903 103.79 126.583 104.12 125.103 104.12ZM117.243 109.82V88.34H118.683V93.47L118.443 96.2L118.743 98.93V109.82H117.243ZM125.013 102.77C126.213 102.77 127.293 102.5 128.253 101.96C129.213 101.4 129.963 100.62 130.503 99.62C131.063 98.62 131.343 97.47 131.343 96.17C131.343 94.85 131.063 93.7 130.503 92.72C129.963 91.72 129.213 90.95 128.253 90.41C127.293 89.85 126.213 89.57 125.013 89.57C123.813 89.57 122.733 89.85 121.773 90.41C120.833 90.95 120.083 91.72 119.523 92.72C118.983 93.7 118.713 94.85 118.713 96.17C118.713 97.47 118.983 98.62 119.523 99.62C120.083 100.62 120.833 101.4 121.773 101.96C122.733 102.5 123.813 102.77 125.013 102.77ZM143.96 104.12C142.46 104.12 141.12 103.78 139.94 103.1C138.78 102.42 137.85 101.48 137.15 100.28C136.47 99.08 136.13 97.71 136.13 96.17C136.13 94.61 136.47 93.24 137.15 92.06C137.85 90.86 138.78 89.92 139.94 89.24C141.12 88.56 142.46 88.22 143.96 88.22C145.46 88.22 146.8 88.56 147.98 89.24C149.16 89.92 150.09 90.86 150.77 92.06C151.45 93.24 151.79 94.61 151.79 96.17C151.79 97.71 151.45 99.08 150.77 100.28C150.09 101.48 149.16 102.42 147.98 103.1C146.8 103.78 145.46 104.12 143.96 104.12ZM143.96 102.77C145.16 102.77 146.24 102.5 147.2 101.96C148.16 101.4 148.91 100.62 149.45 99.62C149.99 98.62 150.26 97.47 150.26 96.17C150.26 94.85 149.99 93.7 149.45 92.72C148.91 91.72 148.16 90.95 147.2 90.41C146.24 89.85 145.16 89.57 143.96 89.57C142.76 89.57 141.68 89.85 140.72 90.41C139.78 90.95 139.03 91.72 138.47 92.72C137.93 93.7 137.66 94.85 137.66 96.17C137.66 97.47 137.93 98.62 138.47 99.62C139.03 100.62 139.78 101.4 140.72 101.96C141.68 102.5 142.76 102.77 143.96 102.77ZM163.006 104.12C161.486 104.12 160.126 103.78 158.926 103.1C157.746 102.42 156.806 101.48 156.106 100.28C155.426 99.08 155.086 97.71 155.086 96.17C155.086 94.61 155.426 93.23 156.106 92.03C156.806 90.83 157.746 89.9 158.926 89.24C160.126 88.56 161.486 88.22 163.006 88.22C164.266 88.22 165.406 88.46 166.426 88.94C167.466 89.42 168.306 90.14 168.946 91.1L167.836 91.91C167.276 91.11 166.576 90.52 165.736 90.14C164.896 89.76 163.986 89.57 163.006 89.57C161.786 89.57 160.686 89.85 159.706 90.41C158.746 90.95 157.986 91.72 157.426 92.72C156.886 93.7 156.616 94.85 156.616 96.17C156.616 97.49 156.886 98.65 157.426 99.65C157.986 100.63 158.746 101.4 159.706 101.96C160.686 102.5 161.786 102.77 163.006 102.77C163.986 102.77 164.896 102.58 165.736 102.2C166.576 101.82 167.276 101.23 167.836 100.43L168.946 101.24C168.306 102.2 167.466 102.92 166.426 103.4C165.406 103.88 164.266 104.12 163.006 104.12ZM169.64 103.94L169.79 102.65C169.91 102.67 170.03 102.7 170.15 102.74C170.29 102.76 170.41 102.77 170.51 102.77C171.19 102.77 171.73 102.52 172.13 102.02C172.53 101.5 172.83 100.81 173.03 99.95C173.25 99.09 173.4 98.12 173.48 97.04C173.58 95.96 173.66 94.86 173.72 93.74L173.99 88.34H184.97V104H183.47V89.21L183.89 89.69H174.95L175.34 89.18L175.1 93.86C175.02 95.22 174.91 96.52 174.77 97.76C174.63 99 174.42 100.1 174.14 101.06C173.86 102.02 173.46 102.78 172.94 103.34C172.42 103.88 171.75 104.15 170.93 104.15C170.73 104.15 170.52 104.13 170.3 104.09C170.1 104.05 169.88 104 169.64 103.94ZM201.231 104V100.43L201.171 99.89V94.01C201.171 92.55 200.771 91.44 199.971 90.68C199.191 89.92 198.041 89.54 196.521 89.54C195.441 89.54 194.431 89.73 193.491 90.11C192.571 90.47 191.781 90.94 191.121 91.52L190.371 90.44C191.151 89.74 192.091 89.2 193.191 88.82C194.291 88.42 195.441 88.22 196.641 88.22C198.581 88.22 200.071 88.71 201.111 89.69C202.151 90.67 202.671 92.13 202.671 94.07V104H201.231ZM195.591 104.12C194.431 104.12 193.421 103.94 192.561 103.58C191.721 103.2 191.071 102.67 190.611 101.99C190.171 101.31 189.951 100.53 189.951 99.65C189.951 98.85 190.131 98.13 190.491 97.49C190.871 96.83 191.491 96.3 192.351 95.9C193.211 95.48 194.361 95.27 195.801 95.27H201.561V96.44H195.831C194.211 96.44 193.071 96.74 192.411 97.34C191.771 97.94 191.451 98.69 191.451 99.59C191.451 100.59 191.831 101.39 192.591 101.99C193.351 102.59 194.421 102.89 195.801 102.89C197.121 102.89 198.231 102.59 199.131 101.99C200.051 101.39 200.731 100.52 201.171 99.38L201.591 100.4C201.171 101.54 200.451 102.45 199.431 103.13C198.431 103.79 197.151 104.12 195.591 104.12ZM208.765 104V88.34H215.365C217.085 88.34 218.445 88.68 219.445 89.36C220.445 90.04 220.945 91.03 220.945 92.33C220.945 93.61 220.455 94.58 219.475 95.24C218.515 95.9 217.265 96.23 215.725 96.23L216.145 95.78C217.985 95.78 219.335 96.12 220.195 96.8C221.055 97.48 221.485 98.48 221.485 99.8C221.485 101.14 220.995 102.18 220.015 102.92C219.055 103.64 217.565 104 215.545 104H208.765ZM210.235 102.77H215.515C216.975 102.77 218.085 102.53 218.845 102.05C219.605 101.57 219.985 100.8 219.985 99.74C219.985 98.66 219.645 97.88 218.965 97.4C218.305 96.9 217.235 96.65 215.755 96.65H210.235V102.77ZM210.235 95.48H215.275C216.595 95.48 217.615 95.23 218.335 94.73C219.075 94.23 219.445 93.49 219.445 92.51C219.445 91.53 219.075 90.8 218.335 90.32C217.615 89.82 216.595 89.57 215.275 89.57H210.235V95.48ZM244.057 104.15C242.497 104.15 241.047 103.89 239.707 103.37C238.387 102.83 237.237 102.08 236.257 101.12C235.277 100.16 234.517 99.04 233.977 97.76C233.437 96.46 233.167 95.04 233.167 93.5C233.167 91.96 233.437 90.55 233.977 89.27C234.517 87.97 235.277 86.84 236.257 85.88C237.257 84.92 238.417 84.18 239.737 83.66C241.057 83.12 242.497 82.85 244.057 82.85C245.537 82.85 246.917 83.09 248.197 83.57C249.497 84.05 250.607 84.78 251.527 85.76L250.567 86.75C249.667 85.87 248.667 85.24 247.567 84.86C246.487 84.46 245.337 84.26 244.117 84.26C242.777 84.26 241.527 84.49 240.367 84.95C239.227 85.41 238.227 86.06 237.367 86.9C236.527 87.74 235.867 88.72 235.387 89.84C234.927 90.96 234.697 92.18 234.697 93.5C234.697 94.82 234.927 96.04 235.387 97.16C235.867 98.28 236.527 99.26 237.367 100.1C238.227 100.94 239.227 101.59 240.367 102.05C241.527 102.51 242.777 102.74 244.117 102.74C245.337 102.74 246.487 102.55 247.567 102.17C248.667 101.77 249.667 101.12 250.567 100.22L251.527 101.21C250.607 102.19 249.497 102.93 248.197 103.43C246.917 103.91 245.537 104.15 244.057 104.15ZM255.753 109.94C255.033 109.94 254.353 109.82 253.713 109.58C253.093 109.34 252.563 108.99 252.123 108.53L252.873 107.39C253.273 107.81 253.703 108.12 254.163 108.32C254.643 108.52 255.183 108.62 255.783 108.62C256.503 108.62 257.133 108.42 257.673 108.02C258.233 107.62 258.753 106.89 259.233 105.83L260.313 103.43L260.523 103.16L267.153 88.34H268.683L260.643 106.13C260.223 107.09 259.763 107.84 259.263 108.38C258.783 108.94 258.253 109.34 257.673 109.58C257.093 109.82 256.453 109.94 255.753 109.94ZM260.283 104.39L253.023 88.34H254.613L261.213 103.07L260.283 104.39ZM278.887 104.15C277.627 104.15 276.507 103.93 275.527 103.49C274.567 103.05 273.747 102.4 273.067 101.54C272.407 100.68 271.897 99.62 271.537 98.36C271.177 97.08 270.997 95.61 270.997 93.95C270.997 92.33 271.157 90.94 271.477 89.78C271.797 88.6 272.217 87.61 272.737 86.81C273.277 85.99 273.887 85.32 274.567 84.8C275.247 84.28 275.947 83.87 276.667 83.57C277.407 83.25 278.137 83.01 278.857 82.85L285.787 81.2L286.027 82.61L279.427 84.14C278.967 84.26 278.427 84.42 277.807 84.62C277.207 84.8 276.587 85.09 275.947 85.49C275.327 85.87 274.747 86.41 274.207 87.11C273.687 87.79 273.257 88.67 272.917 89.75C272.597 90.83 272.437 92.17 272.437 93.77C272.437 94.07 272.447 94.31 272.467 94.49C272.487 94.67 272.507 94.87 272.527 95.09C272.567 95.29 272.607 95.59 272.647 95.99L271.957 95.63C272.077 94.31 272.467 93.15 273.127 92.15C273.787 91.15 274.647 90.37 275.707 89.81C276.767 89.25 277.967 88.97 279.307 88.97C280.767 88.97 282.057 89.29 283.177 89.93C284.317 90.55 285.207 91.43 285.847 92.57C286.487 93.69 286.807 94.99 286.807 96.47C286.807 97.95 286.477 99.27 285.817 100.43C285.177 101.59 284.257 102.5 283.057 103.16C281.877 103.82 280.487 104.15 278.887 104.15ZM279.127 102.86C280.327 102.86 281.387 102.59 282.307 102.05C283.247 101.49 283.977 100.73 284.497 99.77C285.017 98.81 285.277 97.72 285.277 96.5C285.277 95.28 285.017 94.21 284.497 93.29C283.977 92.37 283.247 91.65 282.307 91.13C281.387 90.59 280.317 90.32 279.097 90.32C277.897 90.32 276.827 90.58 275.887 91.1C274.967 91.62 274.247 92.34 273.727 93.26C273.207 94.18 272.947 95.25 272.947 96.47C272.947 97.69 273.207 98.78 273.727 99.74C274.267 100.7 274.997 101.46 275.917 102.02C276.857 102.58 277.927 102.86 279.127 102.86ZM298.574 104.15C297.314 104.15 296.194 103.93 295.214 103.49C294.254 103.05 293.434 102.4 292.754 101.54C292.094 100.68 291.584 99.62 291.224 98.36C290.864 97.08 290.684 95.61 290.684 93.95C290.684 92.33 290.844 90.94 291.164 89.78C291.484 88.6 291.904 87.61 292.424 86.81C292.964 85.99 293.574 85.32 294.254 84.8C294.934 84.28 295.634 83.87 296.354 83.57C297.094 83.25 297.824 83.01 298.544 82.85L305.474 81.2L305.714 82.61L299.114 84.14C298.654 84.26 298.114 84.42 297.494 84.62C296.894 84.8 296.274 85.09 295.634 85.49C295.014 85.87 294.434 86.41 293.894 87.11C293.374 87.79 292.944 88.67 292.604 89.75C292.284 90.83 292.124 92.17 292.124 93.77C292.124 94.07 292.134 94.31 292.154 94.49C292.174 94.67 292.194 94.87 292.214 95.09C292.254 95.29 292.294 95.59 292.334 95.99L291.644 95.63C291.764 94.31 292.154 93.15 292.814 92.15C293.474 91.15 294.334 90.37 295.394 89.81C296.454 89.25 297.654 88.97 298.994 88.97C300.454 88.97 301.744 89.29 302.864 89.93C304.004 90.55 304.894 91.43 305.534 92.57C306.174 93.69 306.494 94.99 306.494 96.47C306.494 97.95 306.164 99.27 305.504 100.43C304.864 101.59 303.944 102.5 302.744 103.16C301.564 103.82 300.174 104.15 298.574 104.15ZM298.814 102.86C300.014 102.86 301.074 102.59 301.994 102.05C302.934 101.49 303.664 100.73 304.184 99.77C304.704 98.81 304.964 97.72 304.964 96.5C304.964 95.28 304.704 94.21 304.184 93.29C303.664 92.37 302.934 91.65 301.994 91.13C301.074 90.59 300.004 90.32 298.784 90.32C297.584 90.32 296.514 90.58 295.574 91.1C294.654 91.62 293.934 92.34 293.414 93.26C292.894 94.18 292.634 95.25 292.634 96.47C292.634 97.69 292.894 98.78 293.414 99.74C293.954 100.7 294.684 101.46 295.604 102.02C296.544 102.58 297.614 102.86 298.814 102.86ZM317.662 104.12C316.162 104.12 314.822 103.78 313.642 103.1C312.482 102.42 311.552 101.48 310.852 100.28C310.172 99.08 309.832 97.71 309.832 96.17C309.832 94.61 310.172 93.24 310.852 92.06C311.552 90.86 312.482 89.92 313.642 89.24C314.822 88.56 316.162 88.22 317.662 88.22C319.162 88.22 320.502 88.56 321.682 89.24C322.862 89.92 323.792 90.86 324.472 92.06C325.152 93.24 325.492 94.61 325.492 96.17C325.492 97.71 325.152 99.08 324.472 100.28C323.792 101.48 322.862 102.42 321.682 103.1C320.502 103.78 319.162 104.12 317.662 104.12ZM317.662 102.77C318.862 102.77 319.942 102.5 320.902 101.96C321.862 101.4 322.612 100.62 323.152 99.62C323.692 98.62 323.962 97.47 323.962 96.17C323.962 94.85 323.692 93.7 323.152 92.72C322.612 91.72 321.862 90.95 320.902 90.41C319.942 89.85 318.862 89.57 317.662 89.57C316.462 89.57 315.382 89.85 314.422 90.41C313.482 90.95 312.732 91.72 312.172 92.72C311.632 93.7 311.362 94.85 311.362 96.17C311.362 97.47 311.632 98.62 312.172 99.62C312.732 100.62 313.482 101.4 314.422 101.96C315.382 102.5 316.462 102.77 317.662 102.77ZM332.641 104V89.24L333.061 89.69H326.521V88.34H340.261V89.69H333.721L334.141 89.24V104H332.641ZM343.472 104V88.34H344.972V101.69L356.132 88.34H357.452V104H355.952V90.65L344.792 104H343.472ZM363.922 104V88.34H365.422V95.48H376.042V88.34H377.542V104H376.042V96.8H365.422V104H363.922Z" fill="white"/>
</svg>
