<svg width="473" height="149" viewBox="0 0 473 149" fill="none" xmlns="http://www.w3.org/2000/svg">
<path d="M470.809 74.4941C470.809 84.0143 464.653 93.3577 452.869 102.093C441.114 110.808 424.009 118.719 402.737 125.389C360.211 138.723 301.369 146.994 236.309 146.994C171.248 146.994 112.406 138.723 69.8802 125.389C48.6082 118.719 31.5029 110.808 19.7479 102.093C7.96441 93.3577 1.80859 84.0143 1.80859 74.4941C1.80859 64.974 7.96441 55.6306 19.7479 46.895C31.5029 38.1806 48.6082 30.2695 69.8802 23.5995C112.406 10.2651 171.248 1.99414 236.309 1.99414C301.369 1.99414 360.211 10.2651 402.737 23.5995C424.009 30.2695 441.114 38.1806 452.869 46.895C464.653 55.6306 470.809 64.974 470.809 74.4941Z" fill="white" stroke="black" stroke-width="3"/>
<path d="M113.78 66.15C112.22 66.15 110.77 65.89 109.43 65.37C108.11 64.83 106.96 64.08 105.98 63.12C105 62.16 104.24 61.04 103.7 59.76C103.16 58.46 102.89 57.04 102.89 55.5C102.89 53.96 103.16 52.55 103.7 51.27C104.24 49.97 105 48.84 105.98 47.88C106.98 46.92 108.14 46.18 109.46 45.66C110.78 45.12 112.22 44.85 113.78 44.85C115.26 44.85 116.64 45.09 117.92 45.57C119.22 46.05 120.33 46.78 121.25 47.76L120.29 48.75C119.39 47.87 118.39 47.24 117.29 46.86C116.21 46.46 115.06 46.26 113.84 46.26C112.5 46.26 111.25 46.49 110.09 46.95C108.95 47.41 107.95 48.06 107.09 48.9C106.25 49.74 105.59 50.72 105.11 51.84C104.65 52.96 104.42 54.18 104.42 55.5C104.42 56.82 104.65 58.04 105.11 59.16C105.59 60.28 106.25 61.26 107.09 62.1C107.95 62.94 108.95 63.59 110.09 64.05C111.25 64.51 112.5 64.74 113.84 64.74C115.06 64.74 116.21 64.55 117.29 64.17C118.39 63.77 119.39 63.12 120.29 62.22L121.25 63.21C120.33 64.19 119.22 64.93 117.92 65.43C116.64 65.91 115.26 66.15 113.78 66.15ZM128.067 66V51.24L128.487 51.69H121.947V50.34H135.687V51.69H129.147L129.567 51.24V66H128.067ZM138.718 71.94C137.998 71.94 137.318 71.82 136.678 71.58C136.058 71.34 135.528 70.99 135.088 70.53L135.838 69.39C136.238 69.81 136.668 70.12 137.128 70.32C137.608 70.52 138.148 70.62 138.748 70.62C139.468 70.62 140.098 70.42 140.638 70.02C141.198 69.62 141.718 68.89 142.198 67.83L143.278 65.43L143.488 65.16L150.118 50.34H151.648L143.608 68.13C143.188 69.09 142.728 69.84 142.228 70.38C141.748 70.94 141.218 71.34 140.638 71.58C140.058 71.82 139.418 71.94 138.718 71.94ZM143.248 66.39L135.988 50.34H137.578L144.178 65.07L143.248 66.39ZM165.429 65.28V51.69H157.269L157.089 55.59C157.049 56.69 156.979 57.79 156.879 58.89C156.779 59.97 156.619 60.97 156.399 61.89C156.179 62.79 155.869 63.52 155.469 64.08C155.089 64.64 154.589 64.95 153.969 65.01L152.469 64.68C153.109 64.72 153.629 64.49 154.029 63.99C154.429 63.47 154.739 62.77 154.959 61.89C155.179 61.01 155.339 60.02 155.439 58.92C155.559 57.8 155.649 56.66 155.709 55.5L155.919 50.34H166.929V65.28H165.429ZM151.779 69.9V64.68H169.449V69.9H168.039V66H153.219V69.9H151.779ZM180.359 66.12C178.779 66.12 177.379 65.78 176.159 65.1C174.959 64.42 174.009 63.48 173.309 62.28C172.629 61.08 172.289 59.71 172.289 58.17C172.289 56.61 172.609 55.24 173.249 54.06C173.909 52.86 174.809 51.92 175.949 51.24C177.089 50.56 178.369 50.22 179.789 50.22C181.209 50.22 182.479 50.55 183.599 51.21C184.739 51.87 185.629 52.8 186.269 54C186.929 55.18 187.259 56.55 187.259 58.11C187.259 58.17 187.249 58.24 187.229 58.32C187.229 58.38 187.229 58.45 187.229 58.53H173.399V57.36H186.419L185.819 57.93C185.839 56.71 185.579 55.62 185.039 54.66C184.519 53.68 183.809 52.92 182.909 52.38C182.009 51.82 180.969 51.54 179.789 51.54C178.629 51.54 177.589 51.82 176.669 52.38C175.769 52.92 175.059 53.68 174.539 54.66C174.019 55.62 173.759 56.72 173.759 57.96V58.23C173.759 59.51 174.039 60.65 174.599 61.65C175.179 62.63 175.969 63.4 176.969 63.96C177.969 64.5 179.109 64.77 180.389 64.77C181.389 64.77 182.319 64.59 183.179 64.23C184.059 63.87 184.799 63.32 185.399 62.58L186.269 63.57C185.589 64.41 184.729 65.05 183.689 65.49C182.669 65.91 181.559 66.12 180.359 66.12ZM192.16 66V50.34H193.66V57.48H204.28V50.34H205.78V66H204.28V58.8H193.66V66H192.16ZM215.108 66V51.24L215.528 51.69H208.988V50.34H222.728V51.69H216.188L216.608 51.24V66H215.108ZM225.699 52.77C225.359 52.77 225.059 52.65 224.799 52.41C224.559 52.15 224.439 51.84 224.439 51.48C224.439 51.12 224.559 50.82 224.799 50.58C225.059 50.34 225.359 50.22 225.699 50.22C226.039 50.22 226.329 50.34 226.569 50.58C226.829 50.82 226.959 51.12 226.959 51.48C226.959 51.84 226.829 52.15 226.569 52.41C226.329 52.65 226.039 52.77 225.699 52.77ZM225.699 66.12C225.359 66.12 225.059 66 224.799 65.76C224.559 65.5 224.439 65.19 224.439 64.83C224.439 64.47 224.559 64.17 224.799 63.93C225.059 63.69 225.359 63.57 225.699 63.57C226.039 63.57 226.329 63.69 226.569 63.93C226.829 64.17 226.959 64.47 226.959 64.83C226.959 65.19 226.829 65.5 226.569 65.76C226.329 66 226.039 66.12 225.699 66.12ZM104.78 103V82H113.24C115.4 82 117.1 82.45 118.34 83.35C119.6 84.25 120.23 85.58 120.23 87.34C120.23 89.08 119.62 90.39 118.4 91.27C117.2 92.15 115.63 92.59 113.69 92.59L114.2 91.99C116.54 91.99 118.31 92.45 119.51 93.37C120.71 94.29 121.31 95.64 121.31 97.42C121.31 99.2 120.69 100.58 119.45 101.56C118.21 102.52 116.33 103 113.81 103H104.78ZM106.31 101.71H113.84C115.78 101.71 117.25 101.36 118.25 100.66C119.27 99.94 119.78 98.83 119.78 97.33C119.78 95.81 119.27 94.71 118.25 94.03C117.25 93.33 115.78 92.98 113.84 92.98H106.31V101.71ZM106.31 91.72H113.21C114.95 91.72 116.29 91.37 117.23 90.67C118.19 89.95 118.67 88.9 118.67 87.52C118.67 86.12 118.19 85.07 117.23 84.37C116.29 83.65 114.95 83.29 113.21 83.29H106.31V91.72ZM136.52 103V99.43L136.46 98.89V93.01C136.46 91.55 136.06 90.44 135.26 89.68C134.48 88.92 133.33 88.54 131.81 88.54C130.73 88.54 129.72 88.73 128.78 89.11C127.86 89.47 127.07 89.94 126.41 90.52L125.66 89.44C126.44 88.74 127.38 88.2 128.48 87.82C129.58 87.42 130.73 87.22 131.93 87.22C133.87 87.22 135.36 87.71 136.4 88.69C137.44 89.67 137.96 91.13 137.96 93.07V103H136.52ZM130.88 103.12C129.72 103.12 128.71 102.94 127.85 102.58C127.01 102.2 126.36 101.67 125.9 100.99C125.46 100.31 125.24 99.53 125.24 98.65C125.24 97.85 125.42 97.13 125.78 96.49C126.16 95.83 126.78 95.3 127.64 94.9C128.5 94.48 129.65 94.27 131.09 94.27H136.85V95.44H131.12C129.5 95.44 128.36 95.74 127.7 96.34C127.06 96.94 126.74 97.69 126.74 98.59C126.74 99.59 127.12 100.39 127.88 100.99C128.64 101.59 129.71 101.89 131.09 101.89C132.41 101.89 133.52 101.59 134.42 100.99C135.34 100.39 136.02 99.52 136.46 98.38L136.88 99.4C136.46 100.54 135.74 101.45 134.72 102.13C133.72 102.79 132.44 103.12 130.88 103.12ZM140.964 102.94L141.114 101.65C141.234 101.67 141.354 101.7 141.474 101.74C141.614 101.76 141.734 101.77 141.834 101.77C142.514 101.77 143.054 101.52 143.454 101.02C143.854 100.5 144.154 99.81 144.354 98.95C144.574 98.09 144.724 97.12 144.804 96.04C144.904 94.96 144.984 93.86 145.044 92.74L145.314 87.34H156.294V103H154.794V88.21L155.214 88.69H146.274L146.664 88.18L146.424 92.86C146.344 94.22 146.234 95.52 146.094 96.76C145.954 98 145.744 99.1 145.464 100.06C145.184 101.02 144.784 101.78 144.264 102.34C143.744 102.88 143.074 103.15 142.254 103.15C142.054 103.15 141.844 103.13 141.624 103.09C141.424 103.05 141.204 103 140.964 102.94ZM169.255 103.12C167.675 103.12 166.275 102.78 165.055 102.1C163.855 101.42 162.905 100.48 162.205 99.28C161.525 98.08 161.185 96.71 161.185 95.17C161.185 93.61 161.505 92.24 162.145 91.06C162.805 89.86 163.705 88.92 164.845 88.24C165.985 87.56 167.265 87.22 168.685 87.22C170.105 87.22 171.375 87.55 172.495 88.21C173.635 88.87 174.525 89.8 175.165 91C175.825 92.18 176.155 93.55 176.155 95.11C176.155 95.17 176.145 95.24 176.125 95.32C176.125 95.38 176.125 95.45 176.125 95.53H162.295V94.36H175.315L174.715 94.93C174.735 93.71 174.475 92.62 173.935 91.66C173.415 90.68 172.705 89.92 171.805 89.38C170.905 88.82 169.865 88.54 168.685 88.54C167.525 88.54 166.485 88.82 165.565 89.38C164.665 89.92 163.955 90.68 163.435 91.66C162.915 92.62 162.655 93.72 162.655 94.96V95.23C162.655 96.51 162.935 97.65 163.495 98.65C164.075 99.63 164.865 100.4 165.865 100.96C166.865 101.5 168.005 101.77 169.285 101.77C170.285 101.77 171.215 101.59 172.075 101.23C172.955 100.87 173.695 100.32 174.295 99.58L175.165 100.57C174.485 101.41 173.625 102.05 172.585 102.49C171.565 102.91 170.455 103.12 169.255 103.12ZM188.946 103.12C187.566 103.12 186.316 102.8 185.196 102.16C184.096 101.52 183.216 100.61 182.556 99.43C181.916 98.23 181.596 96.81 181.596 95.17C181.596 93.53 181.916 92.12 182.556 90.94C183.216 89.74 184.096 88.82 185.196 88.18C186.316 87.54 187.566 87.22 188.946 87.22C190.426 87.22 191.746 87.56 192.906 88.24C194.086 88.9 195.006 89.83 195.666 91.03C196.346 92.23 196.686 93.61 196.686 95.17C196.686 96.73 196.346 98.11 195.666 99.31C195.006 100.51 194.086 101.45 192.906 102.13C191.746 102.79 190.426 103.12 188.946 103.12ZM181.086 108.82V87.34H182.526V92.47L182.286 95.2L182.586 97.93V108.82H181.086ZM188.856 101.77C190.056 101.77 191.136 101.5 192.096 100.96C193.056 100.4 193.806 99.62 194.346 98.62C194.906 97.62 195.186 96.47 195.186 95.17C195.186 93.85 194.906 92.7 194.346 91.72C193.806 90.72 193.056 89.95 192.096 89.41C191.136 88.85 190.056 88.57 188.856 88.57C187.656 88.57 186.576 88.85 185.616 89.41C184.676 89.95 183.926 90.72 183.366 91.72C182.826 92.7 182.556 93.85 182.556 95.17C182.556 96.47 182.826 97.62 183.366 98.62C183.926 99.62 184.676 100.4 185.616 100.96C186.576 101.5 187.656 101.77 188.856 101.77ZM201.564 103V87.34H203.064V100.69L214.224 87.34H215.544V103H214.044V89.65L202.884 103H201.564ZM232.183 103V97.24L232.513 97.6H226.963C225.003 97.6 223.473 97.18 222.373 96.34C221.293 95.48 220.753 94.22 220.753 92.56C220.753 90.8 221.343 89.49 222.523 88.63C223.703 87.77 225.263 87.34 227.203 87.34H233.563V103H232.183ZM220.663 103L225.013 96.97H226.603L222.313 103H220.663ZM232.183 96.82V88.21L232.513 88.66H227.293C225.693 88.66 224.453 88.97 223.573 89.59C222.693 90.21 222.253 91.22 222.253 92.62C222.253 95.18 223.873 96.46 227.113 96.46H232.513L232.183 96.82ZM246.266 103.15C246.026 103.15 245.786 103.13 245.546 103.09C245.326 103.07 245.066 103.03 244.766 102.97L244.946 101.56C245.286 101.64 245.616 101.68 245.936 101.68C246.856 101.68 247.596 101.32 248.156 100.6C248.736 99.88 249.176 98.75 249.476 97.21C249.776 95.65 249.976 93.62 250.076 91.12L250.376 82H264.146V103H262.616V82.9L263.066 83.38H251.336L251.786 82.9L251.486 91.09C251.406 93.21 251.256 95.03 251.036 96.55C250.816 98.05 250.496 99.29 250.076 100.27C249.676 101.25 249.156 101.98 248.516 102.46C247.896 102.92 247.146 103.15 246.266 103.15ZM277.654 103.12C276.074 103.12 274.674 102.78 273.454 102.1C272.254 101.42 271.304 100.48 270.604 99.28C269.924 98.08 269.584 96.71 269.584 95.17C269.584 93.61 269.904 92.24 270.544 91.06C271.204 89.86 272.104 88.92 273.244 88.24C274.384 87.56 275.664 87.22 277.084 87.22C278.504 87.22 279.774 87.55 280.894 88.21C282.034 88.87 282.924 89.8 283.564 91C284.224 92.18 284.554 93.55 284.554 95.11C284.554 95.17 284.544 95.24 284.524 95.32C284.524 95.38 284.524 95.45 284.524 95.53H270.694V94.36H283.714L283.114 94.93C283.134 93.71 282.874 92.62 282.334 91.66C281.814 90.68 281.104 89.92 280.204 89.38C279.304 88.82 278.264 88.54 277.084 88.54C275.924 88.54 274.884 88.82 273.964 89.38C273.064 89.92 272.354 90.68 271.834 91.66C271.314 92.62 271.054 93.72 271.054 94.96V95.23C271.054 96.51 271.334 97.65 271.894 98.65C272.474 99.63 273.264 100.4 274.264 100.96C275.264 101.5 276.404 101.77 277.684 101.77C278.684 101.77 279.614 101.59 280.474 101.23C281.354 100.87 282.094 100.32 282.694 99.58L283.564 100.57C282.884 101.41 282.024 102.05 280.984 102.49C279.964 102.91 278.854 103.12 277.654 103.12ZM296.295 103.15C295.035 103.15 293.915 102.93 292.935 102.49C291.975 102.05 291.155 101.4 290.475 100.54C289.815 99.68 289.305 98.62 288.945 97.36C288.585 96.08 288.405 94.61 288.405 92.95C288.405 91.33 288.565 89.94 288.885 88.78C289.205 87.6 289.625 86.61 290.145 85.81C290.685 84.99 291.295 84.32 291.975 83.8C292.655 83.28 293.355 82.87 294.075 82.57C294.815 82.25 295.545 82.01 296.265 81.85L303.195 80.2L303.435 81.61L296.835 83.14C296.375 83.26 295.835 83.42 295.215 83.62C294.615 83.8 293.995 84.09 293.355 84.49C292.735 84.87 292.155 85.41 291.615 86.11C291.095 86.79 290.665 87.67 290.325 88.75C290.005 89.83 289.845 91.17 289.845 92.77C289.845 93.07 289.855 93.31 289.875 93.49C289.895 93.67 289.915 93.87 289.935 94.09C289.975 94.29 290.015 94.59 290.055 94.99L289.365 94.63C289.485 93.31 289.875 92.15 290.535 91.15C291.195 90.15 292.055 89.37 293.115 88.81C294.175 88.25 295.375 87.97 296.715 87.97C298.175 87.97 299.465 88.29 300.585 88.93C301.725 89.55 302.615 90.43 303.255 91.57C303.895 92.69 304.215 93.99 304.215 95.47C304.215 96.95 303.885 98.27 303.225 99.43C302.585 100.59 301.665 101.5 300.465 102.16C299.285 102.82 297.895 103.15 296.295 103.15ZM296.535 101.86C297.735 101.86 298.795 101.59 299.715 101.05C300.655 100.49 301.385 99.73 301.905 98.77C302.425 97.81 302.685 96.72 302.685 95.5C302.685 94.28 302.425 93.21 301.905 92.29C301.385 91.37 300.655 90.65 299.715 90.13C298.795 89.59 297.725 89.32 296.505 89.32C295.305 89.32 294.235 89.58 293.295 90.1C292.375 90.62 291.655 91.34 291.135 92.26C290.615 93.18 290.355 94.25 290.355 95.47C290.355 96.69 290.615 97.78 291.135 98.74C291.675 99.7 292.405 100.46 293.325 101.02C294.265 101.58 295.335 101.86 296.535 101.86ZM315.622 103.12C314.042 103.12 312.642 102.78 311.422 102.1C310.222 101.42 309.272 100.48 308.572 99.28C307.892 98.08 307.552 96.71 307.552 95.17C307.552 93.61 307.872 92.24 308.512 91.06C309.172 89.86 310.072 88.92 311.212 88.24C312.352 87.56 313.632 87.22 315.052 87.22C316.472 87.22 317.742 87.55 318.862 88.21C320.002 88.87 320.892 89.8 321.532 91C322.192 92.18 322.522 93.55 322.522 95.11C322.522 95.17 322.512 95.24 322.492 95.32C322.492 95.38 322.492 95.45 322.492 95.53H308.662V94.36H321.682L321.082 94.93C321.102 93.71 320.842 92.62 320.302 91.66C319.782 90.68 319.072 89.92 318.172 89.38C317.272 88.82 316.232 88.54 315.052 88.54C313.892 88.54 312.852 88.82 311.932 89.38C311.032 89.92 310.322 90.68 309.802 91.66C309.282 92.62 309.022 93.72 309.022 94.96V95.23C309.022 96.51 309.302 97.65 309.862 98.65C310.442 99.63 311.232 100.4 312.232 100.96C313.232 101.5 314.372 101.77 315.652 101.77C316.652 101.77 317.582 101.59 318.442 101.23C319.322 100.87 320.062 100.32 320.662 99.58L321.532 100.57C320.852 101.41 319.992 102.05 318.952 102.49C317.932 102.91 316.822 103.12 315.622 103.12ZM337.753 102.28V88.69H329.593L329.413 92.59C329.373 93.69 329.303 94.79 329.203 95.89C329.103 96.97 328.943 97.97 328.723 98.89C328.503 99.79 328.193 100.52 327.793 101.08C327.413 101.64 326.913 101.95 326.293 102.01L324.793 101.68C325.433 101.72 325.953 101.49 326.353 100.99C326.753 100.47 327.063 99.77 327.283 98.89C327.503 98.01 327.663 97.02 327.763 95.92C327.883 94.8 327.973 93.66 328.033 92.5L328.243 87.34H339.253V102.28H337.753ZM324.103 106.9V101.68H341.773V106.9H340.363V103H325.543V106.9H324.103ZM352.683 103.12C351.103 103.12 349.703 102.78 348.483 102.1C347.283 101.42 346.333 100.48 345.633 99.28C344.953 98.08 344.613 96.71 344.613 95.17C344.613 93.61 344.933 92.24 345.573 91.06C346.233 89.86 347.133 88.92 348.273 88.24C349.413 87.56 350.693 87.22 352.113 87.22C353.533 87.22 354.803 87.55 355.923 88.21C357.063 88.87 357.953 89.8 358.593 91C359.253 92.18 359.583 93.55 359.583 95.11C359.583 95.17 359.573 95.24 359.553 95.32C359.553 95.38 359.553 95.45 359.553 95.53H345.723V94.36H358.743L358.143 94.93C358.163 93.71 357.903 92.62 357.363 91.66C356.843 90.68 356.133 89.92 355.233 89.38C354.333 88.82 353.293 88.54 352.113 88.54C350.953 88.54 349.913 88.82 348.993 89.38C348.093 89.92 347.383 90.68 346.863 91.66C346.343 92.62 346.083 93.72 346.083 94.96V95.23C346.083 96.51 346.363 97.65 346.923 98.65C347.503 99.63 348.293 100.4 349.293 100.96C350.293 101.5 351.433 101.77 352.713 101.77C353.713 101.77 354.643 101.59 355.503 101.23C356.383 100.87 357.123 100.32 357.723 99.58L358.593 100.57C357.913 101.41 357.053 102.05 356.013 102.49C354.993 102.91 353.883 103.12 352.683 103.12ZM364.484 103V87.34H371.084C372.804 87.34 374.164 87.68 375.164 88.36C376.164 89.04 376.664 90.03 376.664 91.33C376.664 92.61 376.174 93.58 375.194 94.24C374.234 94.9 372.984 95.23 371.444 95.23L371.864 94.78C373.704 94.78 375.054 95.12 375.914 95.8C376.774 96.48 377.204 97.48 377.204 98.8C377.204 100.14 376.714 101.18 375.734 101.92C374.774 102.64 373.284 103 371.264 103H364.484ZM365.954 101.77H371.234C372.694 101.77 373.804 101.53 374.564 101.05C375.324 100.57 375.704 99.8 375.704 98.74C375.704 97.66 375.364 96.88 374.684 96.4C374.024 95.9 372.954 95.65 371.474 95.65H365.954V101.77ZM365.954 94.48H370.994C372.314 94.48 373.334 94.23 374.054 93.73C374.794 93.23 375.164 92.49 375.164 91.51C375.164 90.53 374.794 89.8 374.054 89.32C373.334 88.82 372.314 88.57 370.994 88.57H365.954V94.48ZM392.311 103V99.43L392.251 98.89V93.01C392.251 91.55 391.851 90.44 391.051 89.68C390.271 88.92 389.121 88.54 387.601 88.54C386.521 88.54 385.511 88.73 384.571 89.11C383.651 89.47 382.861 89.94 382.201 90.52L381.451 89.44C382.231 88.74 383.171 88.2 384.271 87.82C385.371 87.42 386.521 87.22 387.721 87.22C389.661 87.22 391.151 87.71 392.191 88.69C393.231 89.67 393.751 91.13 393.751 93.07V103H392.311ZM386.671 103.12C385.511 103.12 384.501 102.94 383.641 102.58C382.801 102.2 382.151 101.67 381.691 100.99C381.251 100.31 381.031 99.53 381.031 98.65C381.031 97.85 381.211 97.13 381.571 96.49C381.951 95.83 382.571 95.3 383.431 94.9C384.291 94.48 385.441 94.27 386.881 94.27H392.641V95.44H386.911C385.291 95.44 384.151 95.74 383.491 96.34C382.851 96.94 382.531 97.69 382.531 98.59C382.531 99.59 382.911 100.39 383.671 100.99C384.431 101.59 385.501 101.89 386.881 101.89C388.201 101.89 389.311 101.59 390.211 100.99C391.131 100.39 391.811 99.52 392.251 98.38L392.671 99.4C392.251 100.54 391.531 101.45 390.511 102.13C389.511 102.79 388.231 103.12 386.671 103.12Z" fill="black"/>
</svg>
