<svg width="503" height="361" viewBox="0 0 503 361" fill="none" xmlns="http://www.w3.org/2000/svg">
<path d="M163.125 180.215L95.9875 247.317L95.1334 248.171H96.341H163.333V278.618H163.318L163.307 279.106C162.204 324.149 126.176 360.297 81.9163 360.297C37.6562 360.297 1.62828 324.149 0.525986 279.106L0.51405 278.618H0.5V248.171H67.4915H68.6991L67.845 247.317L0.707301 180.215L67.406 113.552L68.2601 112.698H67.0526H0.5V83.681C0.571737 37.718 37.0063 0.5 81.9163 0.5C126.826 0.5 163.261 37.7182 163.333 83.6814V112.698H96.7799H95.5724L96.4265 113.552L163.125 180.215Z" fill="black" stroke="black"/>
<path d="M170 83.6806V113.198H237.053L170 180.215L237.492 247.671H170V279.118H170.026C171.135 324.421 207.374 360.797 251.916 360.797C296.459 360.797 332.698 324.421 333.806 279.118H333.833V247.671H266.341L333.833 180.215L266.78 113.198H333.833V83.6806C333.761 37.4525 297.113 0 251.916 0C206.72 0 170.072 37.4525 170 83.6806Z" fill="black"/>
</svg>
